PathFileType	4	(X/Y/Z)	 s02c0302.trc
DataRate	CameraRate	NumFrames	NumMarkers	Units	OrigDataRate	OrigDataStartFrame	OrigNumFrames
200	200	5	51	mm	200	1	2000
Frame#	Time	racr			lacr			c7			jug			rlel			rdr			llel			ldr			s2			lic			ric			lasi			rasi			rpsi			lpsi			rgt			lgt			rth1			rth2			rth3			rth4			rlfc			rmfc			rsh1			rsh2			rsh3			rsh4			rlmal			rmmal			rcal			rtoe			rmt5			rmt1			lth1			lth2			lth4			lth3			llfc			lmfc			lsh1			lsh2			lsh3			lsh4			llmal			lmmal			lcal			ltoe			lmt5			SBIKE			LBIKE			RBIKE			
		X1	Y1	Z1	X2	Y2	Z2	X3	Y3	Z3	X4	Y4	Z4	X5	Y5	Z5	X6	Y6	Z6	X7	Y7	Z7	X8	Y8	Z8	X9	Y9	Z9	X10	Y10	Z10	X11	Y11	Z11	X12	Y12	Z12	X13	Y13	Z13	X14	Y14	Z14	X15	Y15	Z15	X16	Y16	Z16	X17	Y17	Z17	X18	Y18	Z18	X19	Y19	Z19	X20	Y20	Z20	X21	Y21	Z21	X22	Y22	Z22	X23	Y23	Z23	X24	Y24	Z24	X25	Y25	Z25	X26	Y26	Z26	X27	Y27	Z27	X28	Y28	Z28	X29	Y29	Z29	X30	Y30	Z30	X31	Y31	Z31	X32	Y32	Z32	X33	Y33	Z33	X34	Y34	Z34	X35	Y35	Z35	X36	Y36	Z36	X37	Y37	Z37	X38	Y38	Z38	X39	Y39	Z39	X40	Y40	Z40	X41	Y41	Z41	X42	Y42	Z42	X43	Y43	Z43	X44	Y44	Z44	X45	Y45	Z45	X46	Y46	Z46	X47	Y47	Z47	X48	Y48	Z48	X49	Y49	Z49	X50	Y50	Z50	X51	Y51	Z51	
1	0.0050	489.611373	1278.926764	-127.522868	499.471965	1279.212669	-472.550485	520.696924	1297.974250	-304.465788	NaN	NaN	NaN	608.217898	1037.727413	-109.332002	735.793784	845.974239	-127.907393	583.560759	1023.107430	-527.630148	726.113642	841.576795	-473.541579	-2.007120	1120.806064	-326.838624	141.797205	1093.268064	-456.930737	119.944269	1108.157930	-173.382982	184.693770	1056.178148	-429.460268	171.073284	1085.446515	-202.385500	13.829270	1148.092215	-283.172930	30.938690	1150.527111	-370.719704	86.238355	1046.408441	-130.101061	81.935353	1006.957782	-493.809224	175.622412	1018.452828	-126.459219	262.882169	1007.156462	-133.955488	334.411194	966.088159	-109.136201	272.975743	1029.295870	-163.362230	455.259814	877.327869	-141.838173	451.818376	856.914272	-253.344567	444.235474	764.703555	-125.339150	434.995793	676.505442	-145.666317	390.087669	603.773855	-140.435279	448.724599	674.212025	-180.707752	341.890699	495.007493	-147.930678	350.688189	515.988297	-226.972593	266.836560	449.439472	-191.675634	551.323795	428.474493	-185.795169	441.860511	415.688906	-129.383323	469.951167	429.469402	-236.199948	188.040265	911.527595	-508.916520	259.115592	861.211982	-505.240334	283.599244	881.821202	-486.979067	294.208916	779.613236	-504.995801	351.111455	695.540758	-481.065520	351.715435	666.577450	-377.348323	301.921408	604.179131	-499.873906	269.055813	525.584429	-483.340567	198.513945	469.638135	-487.287591	285.568742	517.134667	-447.444428	123.764911	399.413623	-470.695176	138.071599	386.736176	-394.526957	45.833071	394.631631	-430.986605	254.553065	198.823482	-439.965719	158.947351	250.681949	-499.448757	-126.778690	872.022137	-308.147137	37.133185	86.583620	-514.354610	34.324389	82.340383	-114.223478	
2	0.0100	489.668265	1278.967034	-127.599668	499.506235	1279.263838	-472.514518	520.689275	1297.981956	-304.515658	NaN	NaN	NaN	608.353787	1037.802339	-109.312355	735.809592	845.983291	-127.891019	583.623015	1023.173076	-527.658646	726.121465	841.572500	-473.537964	-2.127763	1120.917066	-326.777248	141.641544	1093.340454	-456.998311	119.968246	1108.125784	-173.406623	184.609604	1056.191080	-429.621910	171.058917	1085.402750	-202.447154	13.786082	1148.192407	-283.062559	30.844315	1150.594201	-370.610811	86.217065	1046.399366	-130.079616	81.799463	1007.157215	-493.862835	175.597406	1018.503165	-126.488939	262.850365	1007.209081	-134.021038	334.369007	966.157821	-109.218247	272.922910	1029.357872	-163.433857	455.227728	877.399481	-141.920135	451.725445	856.968146	-253.420028	444.147628	764.826481	-125.397434	434.889371	676.572849	-145.696224	389.943958	603.853771	-140.504494	448.610871	674.291165	-180.775435	341.736111	495.093984	-147.952804	350.517207	516.078345	-227.013782	266.691746	449.538195	-191.635689	551.214228	428.662610	-185.828793	441.744377	415.829721	-129.404104	469.844220	429.621497	-236.205228	188.035377	911.775285	-508.907408	259.157878	861.608290	-505.228590	283.585596	882.205737	-486.921557	294.330968	780.003658	-504.988757	351.227925	695.839363	-481.120463	351.887337	666.743394	-377.365612	302.168382	604.414379	-499.937374	270.741889	526.705625	-483.067456	198.936559	469.726976	-487.357379	285.968628	517.331122	-447.489186	124.286167	399.361002	-470.802643	138.683175	386.668617	-394.593438	46.437871	394.772582	-431.019000	254.587239	198.428895	-439.988914	159.102332	250.480786	-499.465488	-126.782801	872.010957	-308.147692	37.113742	86.631989	-514.392024	34.017700	82.562662	-114.377479	
3	0.0150	489.710837	1279.008420	-127.695193	499.529131	1279.312062	-472.505236	520.663401	1298.000464	-304.568057	NaN	NaN	NaN	608.447772	1037.866562	-109.348699	735.830646	845.997338	-127.883254	583.685503	1023.213280	-527.702207	726.139711	841.591200	-473.563284	-2.204188	1120.914233	-326.679578	141.544322	1093.397448	-456.993894	119.965520	1108.089570	-173.408057	184.537150	1056.216695	-429.704203	171.027634	1085.381973	-202.511180	13.733690	1148.346236	-282.910286	30.746424	1150.642774	-370.499273	86.174045	1046.386277	-130.043583	81.712966	1007.330933	-493.894901	175.548774	1018.566834	-126.533615	262.797458	1007.259677	-134.089615	334.336927	966.245505	-109.276266	272.862730	1029.422654	-163.503304	455.181574	877.496263	-141.993682	451.651188	857.033974	-253.467707	444.073697	764.954670	-125.432448	434.830222	676.691075	-145.737799	389.869739	603.953033	-140.539124	448.537353	674.344241	-180.831513	341.656626	495.168695	-147.978692	350.446682	516.156981	-227.044777	266.636003	449.599875	-191.655522	551.139817	428.782710	-185.824931	441.673808	415.951599	-129.399741	469.839385	429.933628	-236.375515	188.076428	912.121109	-508.851591	258.699205	862.716507	-504.775984	283.424319	882.887943	-486.447894	294.452869	780.385707	-504.965769	351.325813	696.098253	-481.187686	352.455231	666.849764	-377.704202	302.389051	604.562752	-499.988916	269.688150	525.898348	-483.470531	199.296327	469.802291	-487.390607	286.292465	517.481050	-447.574861	124.739422	399.333540	-470.872385	139.123631	386.609740	-394.645701	46.903259	394.895452	-431.028265	254.604735	198.088490	-440.008965	159.235825	250.344410	-499.464598	-126.791024	872.007882	-308.152372	37.111430	86.626835	-514.396022	34.027603	82.546044	-114.389147	
4	0.0200	489.725204	1279.034752	-127.762140	499.538953	1279.350846	-472.499577	520.619582	1298.009106	-304.605356	NaN	NaN	NaN	608.055984	1038.364812	-108.585410	735.863558	846.000975	-127.875675	583.871015	1023.345934	-527.431493	726.217802	841.523185	-473.547240	-1.478122	1119.118095	-326.853687	141.474113	1093.292723	-457.055910	119.520594	1107.547305	-174.613754	184.472997	1056.236234	-429.773847	170.988971	1085.357194	-202.554638	11.929531	1148.931081	-282.954269	33.019617	1149.151269	-372.169370	86.156643	1046.380376	-130.006802	81.652813	1007.459618	-493.915074	175.507704	1018.628878	-126.563457	262.757454	1007.325098	-134.152103	334.302027	966.348662	-109.353294	272.990459	1029.493718	-163.556161	455.148967	877.616979	-142.056494	451.602938	857.118252	-253.535432	444.687581	764.447248	-126.395329	433.488366	676.239156	-146.456418	389.848664	604.046048	-140.566577	449.864804	675.614369	-181.969091	341.128674	496.023573	-147.436175	350.530306	515.989363	-227.337535	266.639063	449.679711	-191.668757	551.133880	428.836605	-185.834955	441.649630	416.028987	-129.395257	469.823465	429.983814	-236.377680	188.141963	912.384618	-508.785416	259.018811	862.584055	-504.714449	283.538464	883.091080	-486.350141	294.554289	780.633569	-504.992579	351.590427	696.086952	-481.359460	352.233846	667.051402	-377.416591	302.564960	604.704831	-500.057962	270.168512	526.010840	-483.988178	199.488298	469.999245	-487.502757	286.526303	517.601695	-447.633427	125.177887	399.274561	-470.957077	139.447066	386.585016	-394.686367	46.999445	395.317469	-430.833520	254.627145	197.828822	-440.008075	159.311835	250.161459	-499.575443	-126.788693	872.028140	-308.194978	37.102622	86.638455	-514.379035	34.327929	82.355586	-114.230098	
5	0.0250	489.408210	1279.412642	-127.178318	499.286921	1279.605157	-472.204234	520.292291	1298.185787	-304.202007	NaN	NaN	NaN	608.094616	1038.507861	-108.638668	735.853688	846.085505	-127.516061	583.775839	1023.588555	-527.281573	726.054021	841.562585	-473.577611	-1.677417	1119.042203	-326.649999	141.525405	1092.904046	-457.058093	119.330023	1108.071229	-174.047898	184.326649	1056.057694	-429.395267	170.952865	1085.311621	-202.591780	11.895051	1148.991460	-282.875311	32.962152	1149.258814	-372.088708	85.963231	1046.559582	-129.717972	81.665725	1007.650678	-493.880142	175.178205	1019.094044	-126.162309	262.423099	1007.767150	-133.811153	333.916920	966.925756	-108.867385	272.607754	1029.822571	-163.373163	455.097243	877.891345	-141.984050	451.338539	857.623289	-253.170148	444.295289	764.933808	-126.018445	433.528224	676.972665	-146.193229	389.606075	604.497360	-140.209294	449.891226	675.725959	-181.783796	341.073133	496.011848	-147.380898	350.395931	516.334070	-226.976776	266.709424	449.794352	-191.705497	550.907131	429.034282	-185.596339	441.319388	416.478235	-128.968509	469.743764	430.354275	-236.254374	188.106856	912.923890	-508.478092	259.184805	862.949319	-504.615264	283.668807	883.390306	-486.212661	294.718882	780.948077	-504.958507	351.432860	696.616081	-481.197994	351.940760	667.748210	-376.910162	302.548156	605.093374	-499.953041	269.957682	526.511197	-483.567503	199.674324	470.184533	-487.418581	286.475026	518.028289	-447.181241	125.310466	399.372151	-470.948376	139.824835	386.492812	-394.825644	47.275340	395.462622	-430.867585	254.586034	197.702548	-439.857562	159.327519	250.150629	-499.486584	-126.787551	872.031198	-308.186872	37.034910	86.540146	-514.353012	33.985841	82.807313	-114.279778	
